<svg width="172" height="169" viewBox="0 0 172 169" fill="none" xmlns="http://www.w3.org/2000/svg">
<path d="M0.999969 55.5C2.99998 54 86 0 86 0L118.5 20.5V4.5H138.5V33.5C138.5 33.5 169 53.5 171 55C173 56.5 171.184 59.5 169.184 59.5H147V152C147 154.5 140.5 154.5 140.5 152V53H157.684L132.684 37V10H124V28.5C124 30.5 124 32 121 30C118 28 86 7 86 7L15.5 53H30.5L30.5 152C30.5 154.5 24.5 154.5 24.5 152V60H3.49997C0.999969 60 -1.00004 57 0.999969 55.5Z" fill="#0F538B"/>
<path d="M53.3163 35.5C56.3163 33.5 85.8163 14.5 85.8163 14.5C85.8163 14.5 115.816 34.5 117.816 36.5C119.816 38.5 116.816 43.5 113.316 41C109.816 38.5 85.8163 22 85.8163 22C85.8163 22 59.8163 39.5 57.3163 41C54.8163 42.5 50.3163 37.5 53.3163 35.5Z" fill="#0F538B"/>
<path d="M45.5 145.5H126.5C129 145.5 129 152 126.5 152H45.5C43 152 43 145.5 45.5 145.5Z" fill="#0F538B"/>
<path d="M2.5 161.511H170C172 161.511 172.023 168.011 170 168.011H2.5C0.0227158 168.011 0.0227158 161.511 2.5 161.511Z" fill="#0F538B"/>
</svg>
