<svg width="75" height="75" viewBox="0 0 75 75" fill="none" xmlns="http://www.w3.org/2000/svg">
<path fill-rule="evenodd" clip-rule="evenodd" d="M38.011 12C24.0603 11.859 12.4252 23.5562 12.011 37.5014C11.5846 51.8545 23.6521 63.6238 38.011 63.5014C51.6858 63.3849 62.834 53.1599 63.511 39.5014C64.2219 25.1569 52.3723 12.1452 38.011 12ZM15.511 37.5014C15.7902 25.4853 25.9947 15.2267 38.011 15.5C50.3031 15.7796 60.3688 27.236 59.511 39.5014C58.7109 50.9408 49.4759 59.266 38.011 59.5014C25.7244 59.7537 15.2255 49.7872 15.511 37.5014Z" fill="#0E528A"/>
<path fill-rule="evenodd" clip-rule="evenodd" d="M38 4H41.5L42 0.5L48.5 1.5L48 5.5L54 8.5L57 5L62 8.5L59.5 12.5L65 17.5L68.5 15.5L71.5 21L68 23L70.5 30.5H74.8508V36.5H71L70 44.5L74 45.5L72.5 52L68.5 51L64.5 57.5L67.5 60L63 64.5L60 62L54 66.5L55.5 70L50 72.5L48.5 69L40.5 70.5V74.5H34.5V71L26.5 69.5L25 73L19 70L20.5 67L15 62L11.5 64.5L7.5 60L10.5 57.5L6 50.5L2.5 52L0.5 46L4.5 44.5L4 37L0 36.5L0.5 30.5H4.5L7 24L3 21L6.5 16L10 18.5L15.5 12.5L13 9L18 5L21 8.5L27.5 6L26.5 1.5L32.5 0L33.5 4H38ZM10 39C9.29091 23.2734 22.2581 9.85831 38 10C53.6069 10.1405 66.203 23.4083 65.5 39C64.8282 53.8991 52.9136 65.3658 38 65.5C22.9452 65.6355 10.6781 54.0402 10 39Z" fill="#0E528B"/>
</svg>
