<svg width="41" height="41" viewBox="0 0 41 41" fill="none" xmlns="http://www.w3.org/2000/svg">
<rect x="0.97998" y="0.939941" width="40" height="40" rx="20" fill="#111111"/>
<g clip-path="url(#clip0_1_546)">
<g clip-path="url(#clip1_1_546)">
<path opacity="0.9" fill-rule="evenodd" clip-rule="evenodd" d="M20.98 10.9399C17.12 10.9399 13.98 14.0609 13.98 17.8964C13.98 19.7194 15.122 22.4539 17.3735 26.0234C18.4204 27.6747 19.5434 29.2764 20.739 30.8234C20.7677 30.8598 20.8044 30.8892 20.8461 30.9093C20.8879 30.9295 20.9336 30.94 20.98 30.9399H20.981C21.0274 30.9399 21.0733 30.9293 21.115 30.9089C21.1568 30.8886 21.1933 30.859 21.222 30.8224C21.2385 30.8004 22.924 28.6369 24.5865 25.9904C26.8385 22.4064 27.98 19.6834 27.98 17.8964C27.98 14.0609 24.84 10.9399 20.98 10.9399ZM20.98 21.2514C19.1185 21.2514 17.6045 19.7464 17.6045 17.8964C17.6045 16.0469 19.1185 14.5419 20.98 14.5419C22.8415 14.5419 24.3555 16.0469 24.3555 17.8964C24.3555 19.7464 22.8415 21.2514 20.98 21.2514Z" fill="#FFFFFC"/>
</g>
</g>
<defs>
<clipPath id="clip0_1_546">
<rect width="20" height="20" fill="white" transform="translate(10.98 10.9399)"/>
</clipPath>
<clipPath id="clip1_1_546">
<rect width="20" height="20" fill="white" transform="translate(10.98 10.9399)"/>
</clipPath>
</defs>
</svg>
