<svg width="41" height="37" viewBox="0 0 41 37" fill="none" xmlns="http://www.w3.org/2000/svg">
<g id="sberbank.svg" clip-path="url(#clip0_1_613)">
<path id="Vector" fill-rule="evenodd" clip-rule="evenodd" d="M36.5612 6.17822C36.9806 6.71822 37.346 7.29422 37.7132 7.90622L36.5612 6.17822Z" fill="#00945A"/>
<path id="Vector_2" d="M36.5612 6.17822C36.9806 6.71822 37.346 7.29422 37.7132 7.90622L36.5612 6.17822Z" fill="#00945A"/>
<path id="Vector_3" fill-rule="evenodd" clip-rule="evenodd" d="M5.603 4.55294L7.1222 3.03014L20.4278 10.4947L33.7334 3.03014C34.2734 3.48734 34.781 4.04534 35.2526 4.55294L20.426 12.8599L5.603 4.55294ZM8.852 1.65854L10.895 0.439941L20.4278 5.77154L29.9606 0.490341C30.641 0.844941 31.3232 1.25174 31.9514 1.70894L20.426 8.15834L8.852 1.70894V1.65854Z" fill="#00945A"/>
<path id="Vector_4" d="M29.9606 0.490234C30.641 0.844834 31.3232 1.25163 31.9514 1.70883L29.9606 0.490234Z" fill="#00945A"/>
<path id="Vector_5" fill-rule="evenodd" clip-rule="evenodd" d="M37.8176 7.90476L20.4296 17.5528L3.14419 7.90476L4.22419 6.17676L20.4098 15.2128L36.491 6.22536L37.8014 7.89936L37.8176 7.90476ZM38.6564 9.73176C39.7235 12.0936 40.2769 14.6551 40.28 17.2468C40.28 27.757 31.3232 36.4402 20.48 36.4402C9.58459 36.4402 0.679993 27.757 0.679993 17.2468C0.683119 14.6551 1.23652 12.0936 2.30359 9.73176L20.4296 19.9378L38.66 9.73176H38.6564Z" fill="#00945A"/>
</g>
<defs>
<clipPath id="clip0_1_613">
<rect width="39.6" height="36" fill="white" transform="translate(0.679993 0.439941)"/>
</clipPath>
</defs>
</svg>
