<svg width="41" height="41" viewBox="0 0 41 41" fill="none" xmlns="http://www.w3.org/2000/svg">
<rect x="0.97998" y="0.939941" width="40" height="40" rx="20" fill="#111111"/>
<g clip-path="url(#clip0_1_518)">
<g clip-path="url(#clip1_1_518)">
<path fill-rule="evenodd" clip-rule="evenodd" d="M27.107 28.6424L25.7325 25.6824C25.6315 25.4651 25.4707 25.281 25.2689 25.1517C25.0671 25.0224 24.8326 24.9533 24.593 24.9524C24.4722 24.9525 24.3522 24.97 24.2365 25.0044L22.602 25.4369C22.367 25.2334 21.615 24.4194 20.2735 21.5314C18.9245 18.6264 18.7915 17.5349 18.789 17.2299L20.1695 16.2464C20.4195 16.0772 20.6014 15.8247 20.6827 15.5339C20.764 15.2431 20.7395 14.9328 20.6135 14.6584L19.239 11.6979C19.1337 11.4721 18.9664 11.2808 18.7564 11.1466C18.5465 11.0123 18.3026 10.9407 18.0535 10.9399C17.8025 10.9399 17.5575 11.0129 17.3455 11.1509L16.5235 11.6854C15.794 12.1384 15.2795 12.8274 14.9945 13.7324C14.7445 14.5279 14.671 15.4959 14.7775 16.6094C14.956 18.4819 15.659 20.8164 16.7575 23.1819C17.7085 25.2294 18.861 27.0834 20.0035 28.4034C21.46 30.0864 22.894 30.9399 24.2655 30.9399C24.643 30.9399 25.017 30.8734 25.3775 30.7424L26.309 30.4534C26.4875 30.397 26.652 30.3032 26.7914 30.1781C26.9309 30.0531 27.0421 29.8998 27.1176 29.7284C27.1931 29.5571 27.2312 29.3716 27.2294 29.1843C27.2275 28.997 27.1858 28.8123 27.107 28.6424Z" fill="#FFFFFC"/>
</g>
</g>
<defs>
<clipPath id="clip0_1_518">
<rect width="20" height="20" fill="white" transform="translate(10.98 10.9399)"/>
</clipPath>
<clipPath id="clip1_1_518">
<rect width="20" height="20" fill="white" transform="translate(10.98 10.9399)"/>
</clipPath>
</defs>
</svg>
