<svg width="41" height="41" viewBox="0 0 41 41" fill="none" xmlns="http://www.w3.org/2000/svg">
<rect x="0.97998" y="0.939941" width="40" height="40" rx="20" fill="#0088CC"/>
<g clip-path="url(#clip0_1_539)">
<g clip-path="url(#clip1_1_539)">
<path fill-rule="evenodd" clip-rule="evenodd" d="M29.6482 12.2516L11.7107 19.3453C10.7325 19.6412 10.7678 20.6535 11.4868 20.8963L15.9888 22.3612L17.7095 27.8686C17.9099 28.4709 18.0866 28.6936 18.4402 28.703C18.6193 28.6946 18.7942 28.6455 18.9514 28.5593C19.1087 28.4731 19.2442 28.3522 19.3477 28.2057C19.8073 27.7578 20.5027 27.0542 21.5987 25.9393L26.2776 29.5469C27.1379 30.0419 27.7625 29.7826 27.9747 28.7125L30.8975 13.5693C31.2157 12.254 30.4732 11.8651 29.6482 12.2516ZM16.6959 22.0254L26.914 15.3288C27.409 14.9753 27.574 15.3701 27.3383 15.6423L18.8645 23.6093L18.4284 27.5858L16.6959 22.0254Z" fill="white"/>
</g>
</g>
<defs>
<clipPath id="clip0_1_539">
<rect width="20" height="20" fill="white" transform="translate(10.98 10.9399)"/>
</clipPath>
<clipPath id="clip1_1_539">
<rect width="20" height="20" fill="white" transform="translate(10.98 10.9399)"/>
</clipPath>
</defs>
</svg>
