<svg width="51" height="17" viewBox="0 0 51 17" fill="none" xmlns="http://www.w3.org/2000/svg">
<g id="visa.svg" clip-path="url(#clip0_1_587)">
<path id="Vector" d="M19.4637 0.587502L12.9172 16.3317H8.64626L5.42533 3.76541C5.22998 2.99332 5.06021 2.7096 4.46603 2.38169C3.49393 1.85146 1.89045 1.35494 0.47998 1.04448L0.575329 0.587502H7.45091C8.32649 0.587502 9.1137 1.17471 9.3137 2.19215L11.0149 11.3038L15.2184 0.587502H19.4637ZM25.237 0.587502L21.8963 16.3317H17.8556L21.1974 0.587502H25.237ZM36.1974 11.1922C36.2149 7.0375 30.4997 6.80843 30.537 4.95029C30.5509 4.38634 31.0835 3.78518 32.2509 3.63169C32.8288 3.55611 34.4253 3.49564 36.2358 4.33634L36.9451 0.995642C35.7363 0.539848 34.4556 0.304343 33.1637 0.300293C29.1695 0.300293 26.3614 2.43983 26.3381 5.50378C26.3114 7.77122 28.3451 9.03401 29.873 9.78983C31.4474 10.5608 31.9753 11.0573 31.9684 11.7456C31.9567 12.8015 30.7125 13.2689 29.5521 13.2875C27.5195 13.3201 26.3428 12.734 25.4009 12.2922L24.6684 15.7433C25.6137 16.1805 27.3544 16.5596 29.1602 16.5805C33.4067 16.5805 36.1835 14.4666 36.1951 11.1933L36.1974 11.1922ZM46.7439 16.3317H50.48L47.216 0.587502H43.7707C43.4009 0.584445 43.0389 0.693015 42.7319 0.899018C42.4248 1.10502 42.1871 1.39887 42.0497 1.74215L35.987 16.3329H40.2311L41.073 13.9805H46.2567L46.7451 16.3329L46.7439 16.3317ZM42.2358 10.7654L44.3637 4.85262L45.5846 10.7654H42.2358Z" fill="#3E45C0"/>
</g>
<defs>
<clipPath id="clip0_1_587">
<rect width="50" height="16.2791" fill="white" transform="translate(0.47998 0.300293)"/>
</clipPath>
</defs>
</svg>
