<svg width="41" height="41" viewBox="0 0 41 41" fill="none" xmlns="http://www.w3.org/2000/svg">
<rect x="0.97998" y="0.939941" width="40" height="40" rx="20" fill="#43D854"/>
<g clip-path="url(#clip0_1_525)">
<g clip-path="url(#clip1_1_525)">
<path fill-rule="evenodd" clip-rule="evenodd" d="M21.1725 9.94659C19.2678 9.93223 17.3937 10.426 15.7434 11.3769C14.093 12.3278 12.726 13.7016 11.7832 15.3567C10.8405 17.0118 10.3561 18.8883 10.3799 20.7929C10.4037 22.6974 10.9349 24.5612 11.9187 26.1922L9.97998 31.9397L15.9612 30.0408C17.3945 30.8494 18.9945 31.3178 20.6376 31.4098C22.2807 31.5019 23.9229 31.2151 25.4376 30.5717C26.9522 29.9282 28.2987 28.9453 29.3732 27.6988C30.4477 26.4524 31.2213 24.9756 31.6344 23.3827C32.0476 21.7897 32.0891 20.1231 31.7558 18.5116C31.4226 16.9 30.7235 15.3866 29.7124 14.0881C28.7014 12.7897 27.4055 11.7409 25.9248 11.0228C24.444 10.3047 22.8181 9.93652 21.1725 9.94659ZM21.1725 11.741C18.7984 11.7355 16.519 12.6711 14.8335 14.343C13.148 16.0148 12.1938 18.2866 12.18 20.6606C12.1834 22.5406 12.7854 24.3707 13.8987 25.8856L12.7712 29.198L16.2362 28.098C17.3977 28.8822 18.7272 29.3825 20.1175 29.5586C21.5078 29.7347 22.92 29.5816 24.2403 29.1117C25.5606 28.6418 26.752 27.8683 27.7184 26.8534C28.6849 25.8386 29.3994 24.6109 29.8043 23.2692C30.2092 21.9276 30.2931 20.5096 30.0494 19.1295C29.8057 17.7495 29.2411 16.446 28.4011 15.3242C27.5612 14.2024 26.4694 13.2936 25.2138 12.6712C23.9581 12.0488 22.5738 11.7302 21.1725 11.741ZM26.755 23.4285C26.6163 23.275 26.4414 23.1587 26.2462 23.0902C25.9712 22.9431 24.6375 22.2308 24.39 22.1277C24.3429 22.0918 24.2887 22.0661 24.2311 22.0524C24.1735 22.0386 24.1136 22.037 24.0553 22.0478C23.9971 22.0585 23.9417 22.0814 23.8928 22.1148C23.8438 22.1482 23.8024 22.1915 23.7712 22.2418C23.5787 22.5086 23.015 23.104 22.85 23.2813C22.8147 23.3239 22.7712 23.359 22.722 23.3844C22.6729 23.4099 22.6191 23.4251 22.564 23.4294C22.5088 23.4336 22.4534 23.4267 22.4009 23.4091C22.3485 23.3914 22.3001 23.3634 22.2587 23.3267C21.4558 22.9778 20.7205 22.4905 20.0862 21.8871C19.5045 21.3147 19.0131 20.6573 18.6287 19.9373C18.6015 19.8922 18.5835 19.8422 18.5757 19.7901C18.5679 19.738 18.5705 19.6849 18.5833 19.6338C18.596 19.5827 18.6188 19.5346 18.6502 19.4923C18.6816 19.45 18.721 19.4144 18.7662 19.3873C18.89 19.2691 19.055 19.078 19.1925 18.924C19.3172 18.7932 19.4194 18.6426 19.495 18.4785C19.5338 18.404 19.553 18.3207 19.5506 18.2367C19.5482 18.1527 19.5243 18.0708 19.4812 17.9986C19.4262 17.8611 18.9175 16.493 18.7112 15.9361C18.505 15.3792 18.2712 15.4631 18.1062 15.4562C17.9412 15.4493 17.7625 15.4205 17.5837 15.4136C17.4429 15.4121 17.3033 15.4393 17.1733 15.4934C17.0433 15.5475 16.9256 15.6275 16.8275 15.7285C16.5075 16.0101 16.2494 16.3551 16.0696 16.7416C15.8897 17.1281 15.792 17.5477 15.7825 17.9738C15.835 19.0091 16.1886 20.0064 16.8 20.8435C17.8811 22.6784 19.4588 24.1703 21.3512 25.1472C24.115 26.3462 24.1287 25.9805 24.6375 25.953C25.0255 25.8937 25.3965 25.7527 25.726 25.5394C26.0554 25.3261 26.3359 25.0452 26.5487 24.7155C26.748 24.3193 26.8201 23.8713 26.755 23.4326V23.4285Z" fill="white"/>
</g>
</g>
<defs>
<clipPath id="clip0_1_525">
<rect width="22" height="22" fill="white" transform="translate(9.97998 9.93994)"/>
</clipPath>
<clipPath id="clip1_1_525">
<rect width="22" height="22" fill="white" transform="translate(9.97998 9.93994)"/>
</clipPath>
</defs>
</svg>
